<!--?xml version="1.0" standalone="no"?--><svg version="1.0" xmlns="http://www.w3.org/2000/svg" width="300.000000pt" height="300.000000pt" viewBox="0 0 300.000000 300.000000" preserveAspectRatio="xMidYMid meet">
<metadata>
  <rdf:rdf xmlns:rdf="http://www.w3.org/1999/02/22-rdf-syntax-ns#" xmlns:rdfs="http://www.w3.org/2000/01/rdf-schema#" xmlns:dc="http://purl.org/dc/elements/1.1/">
    <rdf:description dc:title="teapot" dc:publisher="" dc:date="" dc:format="image/svg+xml" dc:language="en">
      <dc:creator>
        <rdf:bag>
          <rdf:li></rdf:li>
        </rdf:bag>
      </dc:creator>
    </rdf:description>
  </rdf:rdf>
</metadata>
<g transform="translate(0.000000,300.000000) scale(0.100000,-0.100000)" fill="#17b9f3" stroke="none">
<path d="M1369 2290 c-79 -41 -115 -127 -90 -210 13 -46 76 -105 121 -115 92
-20 179 30 205 118 43 150 -103 278 -236 207z" id="node1" class="node"></path>
<path d="M1265 1916 c-92 -25 -184 -70 -270 -131 -62 -44 -175 -152 -175 -167
0 -4 281 -8 625 -8 344 0 625 4 625 9 0 14 -128 130 -198 178 -191 131 -406
174 -607 119z" id="node2" class="node"></path>
<path d="M689 1458 c-17 -24 -33 -49 -36 -55 -4 -10 -38 -13 -123 -13 -272 0
-423 -75 -499 -246 -23 -53 -25 -72 -26 -179 0 -120 0 -120 38 -191 107 -201
318 -355 558 -408 14 -3 57 -36 95 -73 64 -63 119 -104 192 -144 21 -12 31
-27 36 -52 4 -23 19 -47 42 -66 l35 -31 445 0 446 0 34 34 c24 24 34 43 34 65
0 26 7 34 61 66 122 72 239 187 290 286 10 22 25 39 31 39 16 0 137 49 168 68
55 35 135 109 176 164 80 110 133 244 199 513 36 146 61 211 93 248 14 16 8
17 -111 17 -110 0 -129 -2 -146 -19 -10 -10 -33 -63 -51 -118 -18 -55 -49
-125 -69 -154 -37 -55 -124 -123 -171 -133 -14 -2 -32 -7 -41 -11 -13 -5 -21
11 -44 80 -27 85 -97 232 -148 313 l-27 42 -725 0 -725 0 -31 -42z m-154 -320
c-42 -130 -64 -322 -47 -420 6 -39 6 -58 -1 -58 -22 0 -107 63 -159 118 -78
82 -101 135 -92 212 13 117 70 158 221 159 62 1 81 -2 78 -11z" id="node3" class="node"></path>
</g>
<g transform="translate(0.000000,300.000000) scale(0.100000,-0.100000)" fill="#EFF1CB" stroke="none">



</g>
</svg>